<svg xmlns="http://www.w3.org/2000/svg" x="0px" y="0px"
width="48" height="48"
viewBox="0 0 172 172"
style=" fill:#000000;"><defs><linearGradient x1="16.65533" y1="52.48867" x2="83.86075" y2="119.69408" gradientUnits="userSpaceOnUse" id="color-1_zQ92KI7XjZgR_gr1"><stop offset="0" stop-color="#5961c3"></stop><stop offset="1" stop-color="#3a41ac"></stop></linearGradient></defs><g fill="none" fill-rule="nonzero" stroke="none" stroke-width="1" stroke-linecap="butt" stroke-linejoin="miter" stroke-miterlimit="10" stroke-dasharray="" stroke-dashoffset="0" font-family="none" font-weight="none" font-size="none" text-anchor="none" style="mix-blend-mode: normal"><path d="M0,172v-172h172v172z" fill="none"></path><g><path d="M157.66667,78.83333v28.66667c0,11.87517 -9.62483,21.5 -21.5,21.5c-11.87517,0 -21.5,-9.62483 -21.5,-21.5v-35.83333h35.83333c3.95958,0 7.16667,3.20708 7.16667,7.16667zM136.16667,57.33333c7.91558,0 14.33333,-6.41775 14.33333,-14.33333c0,-7.91558 -6.41775,-14.33333 -14.33333,-14.33333c-7.91558,0 -14.33333,6.41775 -14.33333,14.33333c0,7.91558 6.41775,14.33333 14.33333,14.33333z" fill="#5059c9"></path><path d="M125.41667,78.83333v39.41667c0,20.57908 -17.34692,37.109 -38.21983,35.7545c-19.04542,-1.23267 -33.44683,-17.89875 -33.44683,-36.98358v-45.35425h64.5c3.95958,0 7.16667,3.20708 7.16667,7.16667zM89.58333,60.91667c11.87517,0 21.5,-9.62483 21.5,-21.5c0,-11.87517 -9.62483,-21.5 -21.5,-21.5c-11.87517,0 -21.5,9.62483 -21.5,21.5c0,11.87517 9.62483,21.5 21.5,21.5z" fill="#7b83eb"></path><circle cx="25" cy="11" transform="scale(3.58333,3.58333)" r="6" fill="#7b83eb"></circle><path d="M93.16667,119.39308v-47.72642h-39.41667v45.35425c0,5.49683 1.22908,10.77867 3.38267,15.56242h22.84017c7.2885,0 13.19383,-5.90533 13.19383,-13.19025z" fill="#000000" opacity="0.05"></path><path d="M53.75,71.66667v45.35425c0,4.15667 0.72025,8.18433 1.98517,11.97908h23.85783c6.17767,0 11.18358,-5.00592 11.18358,-11.18358v-46.14975z" fill="#000000" opacity="0.07"></path><path d="M88.39008,71.66667h-34.64008v45.35425c0,2.87383 0.36192,5.676 0.98183,8.39575h24.48133c5.06683,0 9.17333,-4.1065 9.17333,-9.17333v-44.57667z" fill="#000000" opacity="0.09"></path><path d="M78.83333,121.83333h-57.33333c-3.95958,0 -7.16667,-3.20708 -7.16667,-7.16667v-57.33333c0,-3.95958 3.20708,-7.16667 7.16667,-7.16667h57.33333c3.95958,0 7.16667,3.20708 7.16667,7.16667v57.33333c0,3.95958 -3.20708,7.16667 -7.16667,7.16667z" fill="url(#color-1_zQ92KI7XjZgR_gr1)"></path><path d="M64.74367,68.07975h-29.154v6.16333h10.91842v29.67h7.31717v-29.67h10.91842z" fill="#ffffff"></path></g></g></svg>