<svg xmlns="http://www.w3.org/2000/svg" x="0px" y="0px"
width="48" height="48"
viewBox="0 0 172 172"
style=" fill:#000000;"><defs><linearGradient x1="16.43317" y1="52.2665" x2="81.5925" y2="117.42583" gradientUnits="userSpaceOnUse" id="color-1_ifP93G7BXUhU_gr1"><stop offset="0" stop-color="#ca4e2a"></stop><stop offset="1" stop-color="#b63016"></stop></linearGradient></defs><g fill="none" fill-rule="nonzero" stroke="none" stroke-width="1" stroke-linecap="butt" stroke-linejoin="miter" stroke-miterlimit="10" stroke-dasharray="" stroke-dashoffset="0" font-family="none" font-weight="none" font-size="none" text-anchor="none" style="mix-blend-mode: normal"><path d="M0,172v-172h172v172z" fill="none"></path><g><path d="M28.66667,86c0,35.62192 28.87808,64.5 64.5,64.5c35.62192,0 64.5,-28.87808 64.5,-64.5h-64.5z" fill="#d35230"></path><path d="M93.16667,21.5v64.5h64.5c0,-35.62192 -28.87808,-64.5 -64.5,-64.5z" fill="#ff8f6b"></path><path d="M93.16667,21.5c-35.62192,0 -64.5,28.87808 -64.5,64.5h64.5z" fill="#ed6c47"></path><path d="M93.16667,59.77358c0,-7.28492 -5.90533,-13.19025 -13.19025,-13.19025h-37.78625c-8.44592,10.90767 -13.5235,24.553 -13.5235,39.41667c0,18.33233 7.68625,34.84075 19.96275,46.58333h31.34342c7.2885,0 13.19383,-5.90533 13.19383,-13.19025z" fill="#000000" opacity="0.05"></path><path d="M79.59658,47.77658h-38.29867c-7.90125,10.707 -12.63125,23.89725 -12.63125,38.22342c0,16.54425 6.28158,31.5835 16.52275,43h34.40717c6.17767,0 11.18358,-5.00592 11.18358,-11.18358v-58.85625c-0.00358,-6.17408 -5.0095,-11.18358 -11.18358,-11.18358z" fill="#000000" opacity="0.07"></path><path d="M79.21317,48.97342h-38.8075c-7.3745,10.48483 -11.739,23.23433 -11.739,37.02658c0,14.86367 5.07758,28.509 13.5235,39.41667h37.023c5.06683,0 9.17333,-4.1065 9.17333,-9.17333v-58.09658c0.00358,-5.06683 -4.1065,-9.17333 -9.17333,-9.17333z" fill="#000000" opacity="0.09"></path><path d="M78.83333,121.83333h-57.33333c-3.95958,0 -7.16667,-3.20708 -7.16667,-7.16667v-57.33333c0,-3.95958 3.20708,-7.16667 7.16667,-7.16667h57.33333c3.95958,0 7.16667,3.20708 7.16667,7.16667v57.33333c0,3.95958 -3.20708,7.16667 -7.16667,7.16667z" fill="url(#color-1_ifP93G7BXUhU_gr1)"></path><path d="M52.57825,68.12633h-16.74492v35.83333h7.25267v-12.61692h8.15567c6.72233,0 12.17258,-5.45025 12.17258,-12.17258v-0.20783c0,-5.98417 -4.85183,-10.836 -10.836,-10.836zM55.7925,80.11617c0,3.07808 -2.49758,5.57567 -5.57567,5.57567h-7.13083v-11.91458h7.13083c3.07808,0 5.57567,2.49758 5.57567,5.57567z" fill="#ffffff"></path></g></g></svg>