<svg xmlns="http://www.w3.org/2000/svg" x="0px" y="0px"
width="48" height="48"
viewBox="0 0 172 172"
style=" fill:#000000;"><g fill="none" fill-rule="nonzero" stroke="none" stroke-width="1" stroke-linecap="butt" stroke-linejoin="miter" stroke-miterlimit="10" stroke-dasharray="" stroke-dashoffset="0" font-family="none" font-weight="none" font-size="none" text-anchor="none" style="mix-blend-mode: normal"><path d="M0,172v-172h172v172z" fill="none"></path><g><path d="M157.595,86c0,2.75917 -1.29,5.51833 -3.90583,7.2025l-93.77583,59.30417c-5.73333,3.7625 -13.33,-0.35833 -13.33,-7.2025v-59.30417l53.75,-7.16667z" fill="#c2185b"></path><path d="M157.595,86h-111.01167v-59.30417c0,-6.84417 7.59667,-10.965 13.33,-7.2025l93.77583,59.30417c2.58,1.68417 3.90583,4.44333 3.90583,7.2025z" fill="#f06292"></path><path d="M21.5,51.70392v71.767c0,3.80192 4.30358,6.00208 7.38525,3.77683l51.67167,-37.32042c2.63375,-1.90275 2.56208,-5.85158 -0.14333,-7.654l-51.67167,-34.45017c-3.096,-2.06042 -7.24192,0.16125 -7.24192,3.88075z" fill="#880e4f"></path></g></g></svg>