<svg xmlns="http://www.w3.org/2000/svg" x="0px" y="0px"
width="24" height="24"
viewBox="0 0 172 172"
style=" fill:#000000;"><g fill="none" fill-rule="nonzero" stroke="none" stroke-width="1" stroke-linecap="butt" stroke-linejoin="miter" stroke-miterlimit="10" stroke-dasharray="" stroke-dashoffset="0" font-family="none" font-weight="none" font-size="none" text-anchor="none" style="mix-blend-mode: normal"><path d="M0,172v-172h172v172z" fill="none"></path><g fill="#fa5758"><path d="M50.16667,14.33333c-2.93117,0 -5.56643,1.78741 -6.65576,4.50716l-28.66667,71.66666c-1.46917,3.6765 0.31976,7.83894 3.99626,9.31527c3.66933,1.45483 7.84252,-0.31634 9.31527,-3.98926l5.368,-13.41651h33.2928l5.361,13.40951c0.67008,1.67341 1.93869,2.89707 3.42936,3.66032l6.87272,-16.50293l-25.65723,-64.14307c-1.09292,-2.71975 -3.7246,-4.50716 -6.65576,-4.50716zM114.4917,35.83333c-2.82839,0.07008 -5.35089,1.79744 -6.4388,4.40918l-35.83333,86c-1.05353,2.37578 -0.73846,5.13572 0.82341,7.21292c1.56188,2.07721 4.12582,3.14619 6.7007,2.79373c2.57488,-0.35247 4.75723,-2.07115 5.70343,-4.49168l7.11768,-17.09082h44.20378l7.11768,17.09082c0.9462,2.42053 3.12855,4.13921 5.70343,4.49168c2.57488,0.35247 5.13882,-0.71652 6.7007,-2.79373c1.56188,-2.07721 1.87694,-4.83715 0.82341,-7.21292l-35.83333,-86c-1.13691,-2.72924 -3.83302,-4.48032 -6.78874,-4.40918zM50.16667,40.79541l10.91797,27.28792h-21.82894zM114.66667,61.63053l16.125,38.7028h-32.25zM78.83333,143.33333c-2.58456,-0.03655 -4.98858,1.32136 -6.29153,3.55376c-1.30295,2.2324 -1.30295,4.99342 0,7.22582c1.30295,2.2324 3.70697,3.59031 6.29153,3.55376h71.66667c2.58456,0.03655 4.98858,-1.32136 6.29153,-3.55376c1.30295,-2.2324 1.30295,-4.99342 0,-7.22582c-1.30295,-2.2324 -3.70697,-3.59031 -6.29153,-3.55376z"></path></g></g></svg>