<svg xmlns="http://www.w3.org/2000/svg" x="0px" y="0px"
width="16" height="16"
viewBox="0 0 172 172"
style=" fill:#000000;"><g fill="none" fill-rule="nonzero" stroke="none" stroke-width="1" stroke-linecap="butt" stroke-linejoin="miter" stroke-miterlimit="10" stroke-dasharray="" stroke-dashoffset="0" font-family="none" font-weight="none" font-size="none" text-anchor="none" style="mix-blend-mode: normal"><path d="M0,172v-172h172v172z" fill="none"></path><g><path d="M21.5,162.325c-6.5188,0 -11.825,-5.3062 -11.825,-11.825v-129c0,-6.5188 5.3062,-11.825 11.825,-11.825h129c6.5188,0 11.825,5.3062 11.825,11.825v129c0,6.5188 -5.3062,11.825 -11.825,11.825z" fill="#1fb141"></path><path d="M150.5,10.75c5.92755,0 10.75,4.82245 10.75,10.75v129c0,5.92755 -4.82245,10.75 -10.75,10.75h-129c-5.92755,0 -10.75,-4.82245 -10.75,-10.75v-129c0,-5.92755 4.82245,-10.75 10.75,-10.75h129M150.5,8.6h-129c-7.1251,0 -12.9,5.7749 -12.9,12.9v129c0,7.1251 5.7749,12.9 12.9,12.9h129c7.1251,0 12.9,-5.7749 12.9,-12.9v-129c0,-7.1251 -5.7749,-12.9 -12.9,-12.9z" fill="#1fb141"></path><path d="M30.1,25.8h55.9v120.4h-55.9z" fill="#ffffff"></path><path d="M116.1,25.8c-16.62377,0 -30.1,13.47623 -30.1,30.1c0,16.62377 13.47623,30.1 30.1,30.1c16.62377,0 30.1,-13.47623 30.1,-30.1c0,-16.62377 -13.47623,-30.1 -30.1,-30.1zM116.1,86c-16.62377,0 -30.1,13.47623 -30.1,30.1c0,16.62377 13.47623,30.1 30.1,30.1c16.62377,0 30.1,-13.47623 30.1,-30.1c0,-16.62377 -13.47623,-30.1 -30.1,-30.1z" fill="#ffffff"></path></g></g></svg>