<svg xmlns="http://www.w3.org/2000/svg" x="0px" y="0px"
width="48" height="48"
viewBox="0 0 172 172"
style=" fill:#000000;"><g fill="none" fill-rule="nonzero" stroke="none" stroke-width="1" stroke-linecap="butt" stroke-linejoin="miter" stroke-miterlimit="10" stroke-dasharray="" stroke-dashoffset="0" font-family="none" font-weight="none" font-size="none" text-anchor="none" style="mix-blend-mode: normal"><path d="M0,172v-172h172v172z" fill="none"></path><g><path d="M68.08333,139.75c-1.79167,0 -3.58333,-0.35833 -3.58333,-3.94167v-13.975c0,-2.15 -1.43333,-3.58333 -3.58333,-3.58333c-2.15,0 -3.58333,1.43333 -3.58333,3.58333v13.975c0,6.80833 4.3,11.10833 10.75,11.10833zM50.16667,139.75c-1.79167,0 -3.58333,-0.35833 -3.58333,-3.94167v-13.975c0,-2.15 -1.43333,-3.58333 -3.58333,-3.58333c-2.15,0 -3.58333,1.43333 -3.58333,3.58333v13.975c0,6.80833 4.3,11.10833 10.75,11.10833z" fill="#78909c"></path><path d="M57.33333,114.66667h7.16667v7.16667h-7.16667zM39.41667,114.66667h7.16667v7.16667h-7.16667z" fill="#546e7a"></path><path d="M118.25,139.75c-1.79167,0 -3.58333,-0.35833 -3.58333,-3.94167v-13.975c0,-2.15 -1.43333,-3.58333 -3.58333,-3.58333c-2.15,0 -3.58333,1.43333 -3.58333,3.58333v13.975c0,6.80833 4.3,11.10833 10.75,11.10833zM100.33333,139.75c-1.79167,0 -3.58333,-0.35833 -3.58333,-3.94167v-13.975c0,-2.15 -1.43333,-3.58333 -3.58333,-3.58333c-2.15,0 -3.58333,1.43333 -3.58333,3.58333v13.975c0,6.80833 4.3,11.10833 10.75,11.10833z" fill="#78909c"></path><path d="M107.5,114.66667h7.16667v7.16667h-7.16667zM89.58333,114.66667h7.16667v7.16667h-7.16667z" fill="#546e7a"></path><path d="M161.25,64.5l-50.16667,-39.41667l-9.116,27.07567z" fill="#84ffff"></path><path d="M111.08333,25.08333l-89.58333,25.08333l-7.16667,21.5l87.634,-19.50767z" fill="#00e5ff"></path><path d="M161.25,64.5l-59.28267,-12.341l5.28542,39.05833z" fill="#00b0ff"></path><path d="M14.33333,71.66667l87.634,-19.50767l5.28542,39.05833l-89.33608,5.53267z" fill="#0091ea"></path><path d="M161.25,64.5l-53.99725,26.71733l18.16392,23.44933z" fill="#1976d2"></path><path d="M17.91667,96.75l89.33608,-5.53267l18.16392,23.44933h-93.16667z" fill="#0d47a1"></path></g></g></svg>